<svg width="63" height="62" viewBox="0 0 63 62" fill="none" xmlns="http://www.w3.org/2000/svg">
<g filter="url(#filter0_d)">
<path fill-rule="evenodd" clip-rule="evenodd" d="M31.435 10C22.5999 10 15.4365 17.3447 15.4365 26.4054C15.4365 33.6534 20.0206 39.8017 26.3785 41.9719C27.1791 42.122 27.4708 41.6154 27.4708 41.1804C27.4708 40.7916 27.457 39.7594 27.4492 38.3908C22.9987 39.3817 22.0597 36.1913 22.0597 36.1913C21.3319 34.297 20.2828 33.7924 20.2828 33.7924C18.8301 32.7742 20.3928 32.7944 20.3928 32.7944C21.9988 32.9112 22.8435 34.4853 22.8435 34.4853C24.2707 36.9919 26.5887 36.2678 27.5002 35.8489C27.6456 34.7884 28.0581 34.0653 28.5159 33.6554C24.9632 33.2415 21.2277 31.8336 21.2277 25.5474C21.2277 23.7568 21.8515 22.2925 22.8749 21.1454C22.7099 20.7305 22.1609 19.0628 23.0311 16.8039C23.0311 16.8039 24.3748 16.3628 27.4315 18.4857C28.7074 18.1222 30.0766 17.9399 31.437 17.9338C32.7954 17.9399 34.1647 18.1222 35.4425 18.4857C38.4973 16.3628 39.838 16.8039 39.838 16.8039C40.7112 19.0628 40.1621 20.7305 39.9971 21.1454C41.0226 22.2925 41.6424 23.7568 41.6424 25.5474C41.6424 31.8497 37.9011 33.2365 34.3366 33.6423C34.9112 34.1489 35.4229 35.15 35.4229 36.6807C35.4229 38.8731 35.4032 40.6426 35.4032 41.1804C35.4032 41.6195 35.691 42.1301 36.5033 41.9699C42.8564 39.7956 47.4365 33.6514 47.4365 26.4054C47.4365 17.3447 40.2722 10 31.435 10Z" fill="#2A2A2B"/>
</g>
<defs>
<filter id="filter0_d" x="0.436523" y="1.52588e-05" width="62" height="62" filterUnits="userSpaceOnUse" color-interpolation-filters="sRGB">
<feFlood flood-opacity="0" result="BackgroundImageFix"/>
<feColorMatrix in="SourceAlpha" type="matrix" values="0 0 0 0 0 0 0 0 0 0 0 0 0 0 0 0 0 0 127 0"/>
<feOffset dy="5"/>
<feGaussianBlur stdDeviation="7.5"/>
<feColorMatrix type="matrix" values="0 0 0 0 0 0 0 0 0 0 0 0 0 0 0 0 0 0 0.5 0"/>
<feBlend mode="normal" in2="BackgroundImageFix" result="effect1_dropShadow"/>
<feBlend mode="normal" in="SourceGraphic" in2="effect1_dropShadow" result="shape"/>
</filter>
</defs>
</svg>
