<svg width="67" height="67" viewBox="0 0 67 67" fill="none" xmlns="http://www.w3.org/2000/svg">
<rect x="11.958" y="11.9548" width="32.6802" height="32.6802" rx="8" fill="url(#paint0_linear)"/>
<g filter="url(#filter0_d)">
<path d="M28.7412 11C23.9436 11 23.3421 11.0203 21.4579 11.1063C19.5777 11.1921 18.2935 11.4907 17.1699 11.9274C16.0082 12.3789 15.0231 12.9829 14.041 13.9649C13.059 14.947 12.455 15.9321 12.0035 17.0938C11.5668 18.2174 11.2682 19.5015 11.1824 21.3817C11.0964 23.2659 11.0762 23.8675 11.0762 28.665C11.0762 33.4625 11.0964 34.0641 11.1824 35.9483C11.2682 37.8285 11.5668 39.1126 12.0035 40.2362C12.455 41.3979 13.059 42.383 14.041 43.3651C15.0231 44.3472 16.0082 44.9512 17.1699 45.4026C18.2935 45.8393 19.5777 46.1379 21.4579 46.2237C23.3421 46.3097 23.9436 46.33 28.7412 46.33C33.5387 46.33 34.1403 46.3097 36.0244 46.2237C37.9047 46.1379 39.1888 45.8393 40.3124 45.4026C41.474 44.9512 42.4592 44.3472 43.4413 43.3651C44.4233 42.383 45.0274 41.3979 45.4788 40.2362C45.9155 39.1126 46.2141 37.8285 46.2999 35.9483C46.3858 34.0641 46.4062 33.4625 46.4062 28.665C46.4062 23.8675 46.3858 23.2659 46.2999 21.3817C46.2141 19.5015 45.9155 18.2174 45.4788 17.0938C45.0274 15.9321 44.4233 14.947 43.4413 13.9649C42.4592 12.9829 41.474 12.3789 40.3124 11.9274C39.1888 11.4907 37.9047 11.1921 36.0244 11.1063C34.1403 11.0203 33.5387 11 28.7412 11ZM28.7412 14.1829C33.4579 14.1829 34.0166 14.2009 35.8793 14.2859C37.6017 14.3645 38.537 14.6523 39.1595 14.8941C39.984 15.2146 40.5725 15.5974 41.1906 16.2156C41.8088 16.8337 42.1916 17.4222 42.5121 18.2467C42.754 18.8692 43.0417 19.8045 43.1203 21.5268C43.2053 23.3895 43.2233 23.9483 43.2233 28.665C43.2233 33.3817 43.2053 33.9405 43.1203 35.8032C43.0417 37.5255 42.754 38.4608 42.5121 39.0833C42.1916 39.9079 41.8088 40.4963 41.1906 41.1144C40.5725 41.7326 39.984 42.1154 39.1595 42.4359C38.537 42.6778 37.6017 42.9656 35.8793 43.0441C34.0169 43.1291 33.4583 43.1471 28.7412 43.1471C24.0241 43.1471 23.4655 43.1291 21.603 43.0441C19.8807 42.9656 18.9453 42.6778 18.3229 42.4359C17.4983 42.1154 16.9098 41.7326 16.2917 41.1144C15.6735 40.4963 15.2907 39.9079 14.9703 39.0833C14.7284 38.4608 14.4406 37.5255 14.362 35.8032C14.277 33.9405 14.259 33.3817 14.259 28.665C14.259 23.9483 14.277 23.3895 14.362 21.5268C14.4406 19.8045 14.7284 18.8692 14.9703 18.2467C15.2907 17.4222 15.6735 16.8337 16.2917 16.2156C16.9098 15.5974 17.4983 15.2146 18.3229 14.8941C18.9453 14.6523 19.8807 14.3645 21.603 14.2859C23.4657 14.2009 24.0244 14.1829 28.7412 14.1829Z" fill="white" stroke="white"/>
<path d="M28.7402 34.5533C25.4881 34.5533 22.8518 31.9171 22.8518 28.665C22.8518 25.413 25.4881 22.7767 28.7402 22.7767C31.9922 22.7767 34.6285 25.413 34.6285 28.665C34.6285 31.9171 31.9922 34.5533 28.7402 34.5533ZM28.7402 19.5938C23.7302 19.5938 19.6689 23.6551 19.6689 28.665C19.6689 33.6749 23.7302 37.7362 28.7402 37.7362C33.7501 37.7362 37.8114 33.6749 37.8114 28.665C37.8114 23.6551 33.7501 19.5938 28.7402 19.5938Z" fill="white"/>
<path d="M40.2894 19.2354C40.2894 20.4061 39.3403 21.3552 38.1696 21.3552C36.9989 21.3552 36.0498 20.4061 36.0498 19.2354C36.0498 18.0646 36.9989 17.1156 38.1696 17.1156C39.3403 17.1156 40.2894 18.0646 40.2894 19.2354Z" fill="white"/>
</g>
<defs>
<filter id="filter0_d" x="0.576172" y="0.5" width="66.33" height="66.33" filterUnits="userSpaceOnUse" color-interpolation-filters="sRGB">
<feFlood flood-opacity="0" result="BackgroundImageFix"/>
<feColorMatrix in="SourceAlpha" type="matrix" values="0 0 0 0 0 0 0 0 0 0 0 0 0 0 0 0 0 0 127 0"/>
<feOffset dx="5" dy="5"/>
<feGaussianBlur stdDeviation="7.5"/>
<feColorMatrix type="matrix" values="0 0 0 0 0.862745 0 0 0 0 0.180392 0 0 0 0 0.396078 0 0 0 0.5 0"/>
<feBlend mode="normal" in2="BackgroundImageFix" result="effect1_dropShadow"/>
<feBlend mode="normal" in="SourceGraphic" in2="effect1_dropShadow" result="shape"/>
</filter>
<linearGradient id="paint0_linear" x1="14.499" y1="12" x2="41.999" y2="41.5" gradientUnits="userSpaceOnUse">
<stop stop-color="#405DE6"/>
<stop offset="0.130208" stop-color="#5B51D8"/>
<stop offset="0.25" stop-color="#833AB4"/>
<stop offset="0.364583" stop-color="#C13584"/>
<stop offset="0.46875" stop-color="#E1306C"/>
<stop offset="0.572917" stop-color="#FD1D1D"/>
<stop offset="0.677083" stop-color="#F56040"/>
<stop offset="0.776042" stop-color="#F77737"/>
<stop offset="0.869792" stop-color="#FCAF45"/>
<stop offset="0.984375" stop-color="#FFDC80"/>
</linearGradient>
</defs>
</svg>
