<svg width="59" height="53" viewBox="0 0 59 53" fill="none" xmlns="http://www.w3.org/2000/svg">
<g filter="url(#filter0_d)">
<path d="M13.5395 14.7602C13.5747 14.4133 13.4424 14.0703 13.1833 13.8368L10.5442 10.6577V10.1827H18.7384L25.0721 24.0733L30.6406 10.1827L38.452 10.1828V10.6577L36.1956 12.821C36.001 12.9692 35.9046 13.2131 35.9449 13.4543V29.3499C35.9046 29.5911 36.001 29.8349 36.1956 29.9831L38.3992 32.1465V32.6214H27.3154V32.1465L29.598 29.9303C29.8224 29.7061 29.8224 29.6401 29.8224 29.2972V16.4487L23.4755 32.5685H22.6179L15.2285 16.4487V27.2525C15.167 27.7067 15.3178 28.1641 15.6375 28.4925L18.6066 32.0936V32.5685H10.188V32.0936L13.157 28.4925C13.4744 28.1634 13.6164 27.703 13.5395 27.2525V14.7602Z" fill="#242525"/>
</g>
<defs>
<filter id="filter0_d" x="0.187988" y="0.182739" width="58.264" height="52.4386" filterUnits="userSpaceOnUse" color-interpolation-filters="sRGB">
<feFlood flood-opacity="0" result="BackgroundImageFix"/>
<feColorMatrix in="SourceAlpha" type="matrix" values="0 0 0 0 0 0 0 0 0 0 0 0 0 0 0 0 0 0 127 0"/>
<feOffset dx="5" dy="5"/>
<feGaussianBlur stdDeviation="7.5"/>
<feColorMatrix type="matrix" values="0 0 0 0 0 0 0 0 0 0 0 0 0 0 0 0 0 0 0.5 0"/>
<feBlend mode="normal" in2="BackgroundImageFix" result="effect1_dropShadow"/>
<feBlend mode="normal" in="SourceGraphic" in2="effect1_dropShadow" result="shape"/>
</filter>
</defs>
</svg>
