<svg width="60" height="59" viewBox="0 0 60 59" fill="none" xmlns="http://www.w3.org/2000/svg">
<g filter="url(#filter0_d)">
<path d="M24.9136 10.533C17.1088 10.533 10.7817 16.8602 10.7817 24.6649C10.7817 30.6521 14.5066 35.7702 19.7637 37.8293C19.64 36.7112 19.5284 34.9916 19.8127 33.7709C20.0694 32.668 21.4698 26.7464 21.4698 26.7464C21.4698 26.7464 21.047 25.8999 21.047 24.6482C21.047 22.6832 22.186 21.2162 23.6042 21.2162C24.8098 21.2162 25.3923 22.1214 25.3923 23.2069C25.3923 24.4194 24.6203 26.2322 24.2218 27.9121C23.8889 29.3188 24.9272 30.4659 26.3145 30.4659C28.8264 30.4659 30.7571 27.8174 30.7571 23.9944C30.7571 20.6109 28.3256 18.2451 24.8541 18.2451C20.833 18.2451 18.4728 21.261 18.4728 24.3779C18.4728 25.5926 18.9406 26.8949 19.5245 27.6029C19.6399 27.7428 19.6569 27.8656 19.6226 28.0083C19.5152 28.4547 19.2769 29.4145 19.23 29.6109C19.1683 29.8696 19.0251 29.9245 18.7574 29.7999C16.9924 28.9783 15.8889 26.3979 15.8889 24.3252C15.8889 19.8673 19.1278 15.7734 25.2264 15.7734C30.1287 15.7734 33.9386 19.2666 33.9386 23.9352C33.9386 28.8057 30.8677 32.7253 26.6053 32.7253C25.1733 32.7253 23.827 31.9814 23.3663 31.1027C23.3663 31.1027 22.6576 33.8009 22.4858 34.4621C22.1666 35.6897 21.3055 37.2283 20.7294 38.1668C22.0518 38.5763 23.4569 38.797 24.9136 38.797C32.7187 38.797 39.0457 32.4701 39.0457 24.6649C39.0457 16.8602 32.7187 10.533 24.9136 10.533Z" fill="#BD081C"/>
</g>
<defs>
<filter id="filter0_d" x="0.781738" y="0.53302" width="58.264" height="58.264" filterUnits="userSpaceOnUse" color-interpolation-filters="sRGB">
<feFlood flood-opacity="0" result="BackgroundImageFix"/>
<feColorMatrix in="SourceAlpha" type="matrix" values="0 0 0 0 0 0 0 0 0 0 0 0 0 0 0 0 0 0 127 0"/>
<feOffset dx="5" dy="5"/>
<feGaussianBlur stdDeviation="7.5"/>
<feColorMatrix type="matrix" values="0 0 0 0 0.741176 0 0 0 0 0.0313726 0 0 0 0 0.109804 0 0 0 0.5 0"/>
<feBlend mode="normal" in2="BackgroundImageFix" result="effect1_dropShadow"/>
<feBlend mode="normal" in="SourceGraphic" in2="effect1_dropShadow" result="shape"/>
</filter>
</defs>
</svg>
