<svg width="59" height="54" viewBox="0 0 59 54" fill="none" xmlns="http://www.w3.org/2000/svg">
<g filter="url(#filter0_d)">
<path d="M19.4827 33.1487C30.1484 33.1487 35.9821 24.3123 35.9821 16.6493C35.9821 16.3983 35.9821 16.1485 35.9652 15.8997C37.1 15.0788 38.0797 14.0625 38.8582 12.8981C37.7999 13.3671 36.6772 13.6746 35.5276 13.8105C36.7379 13.086 37.6443 11.9456 38.077 10.6031C36.9388 11.2785 35.6933 11.7545 34.3948 12.0106C33.2983 10.8447 31.767 10.1827 30.1666 10.1827C26.9824 10.1827 24.3623 12.8029 24.3623 15.987C24.3623 16.4288 24.4127 16.8691 24.5125 17.2994C19.8524 17.0658 15.5045 14.8615 12.5614 11.2407C11.031 13.8753 11.8228 17.2896 14.3567 18.9816C13.434 18.9543 12.5311 18.7053 11.7248 18.2558V18.3293C11.7256 21.0792 13.6816 23.4693 16.377 24.0138C15.5234 24.2466 14.6275 24.2806 13.7587 24.1132C14.5165 26.4696 16.7016 28.0938 19.1763 28.1403C17.1233 29.7537 14.5858 30.6301 11.9746 30.6275C11.5133 30.6267 11.0523 30.5987 10.5942 30.5439C13.2459 32.2455 16.3321 33.1483 19.4827 33.1441" fill="#13A8FC"/>
</g>
<defs>
<filter id="filter0_d" x="0.594238" y="0.182739" width="58.264" height="52.9659" filterUnits="userSpaceOnUse" color-interpolation-filters="sRGB">
<feFlood flood-opacity="0" result="BackgroundImageFix"/>
<feColorMatrix in="SourceAlpha" type="matrix" values="0 0 0 0 0 0 0 0 0 0 0 0 0 0 0 0 0 0 127 0"/>
<feOffset dx="5" dy="5"/>
<feGaussianBlur stdDeviation="7.5"/>
<feColorMatrix type="matrix" values="0 0 0 0 0.0745098 0 0 0 0 0.658823 0 0 0 0 0.988235 0 0 0 0.51 0"/>
<feBlend mode="normal" in2="BackgroundImageFix" result="effect1_dropShadow"/>
<feBlend mode="normal" in="SourceGraphic" in2="effect1_dropShadow" result="shape"/>
</filter>
</defs>
</svg>
